<?xml version="1.0" encoding="utf-8"?>
<!-- Svg Vector Icons : http://www.onlinewebfonts.com/icon -->
<!DOCTYPE svg PUBLIC "-//W3C//DTD SVG 1.1//EN" "http://www.w3.org/Graphics/SVG/1.1/DTD/svg11.dtd">
<svg version="1.1" xmlns="http://www.w3.org/2000/svg" xmlns:xlink="http://www.w3.org/1999/xlink" x="0px" y="0px" viewBox="0 0 1000 1000" enable-background="new 0 0 1000 1000" xml:space="preserve">
<metadata> Svg Vector Icons : http://www.onlinewebfonts.com/icon </metadata>
<g><path d="M500,10C229.4,10,10,229.4,10,500s219.4,490,490,490s490-219.4,490-490S770.6,10,500,10z M500,955.6c-251.6,0-455.6-204-455.6-455.6S248.4,44.5,500,44.5S955.6,248.4,955.6,500S751.6,955.6,500,955.6z"/><path d="M761,270.9L430.4,661.5L232.5,499.1l-17,20.7l-0.1-0.1l-4.3,5.5l-8.9,10.9l45.9,37.7L399.4,698l-0.2,0.2l36.5,30.9l362.1-427.8L761,270.9z"/></g>
</svg>